<svg id="Camada_1" data-name="Camada 1" xmlns="http://www.w3.org/2000/svg" viewBox="0 0 976.53 252.52"><defs><style>.cls-1,.cls-3{fill:#8c8c8c;}.cls-2{fill:#e99d14;}.cls-3{font-size:76.34px;font-family:LEMONMILK-Regular, LEMON MILK;}.cls-4{letter-spacing:-0.01em;}</style></defs><path class="cls-1" d="M231.85,851.91l-6.16,79.9,36.81-35.32v-74Zm-47.18,45.27-19.83,93L218.21,939l6.16-79.9Zm17-78.06-9.42,42.35L187,885.41l.27-.26,38-36.4,4.44-57.55Zm23.19,123-5.31,68.69H262.5V906.06Zm-62.62,60.07-1.83,8.62h52.22l4.75-61.52ZM237.12,783.7l-4.46,57.87,29.84-28.63V758.32Z" transform="translate(-160.44 -758.32)"/><path class="cls-2" d="M293.15,851.9,262.5,822.5v74l36.82,35.31Zm30.16-32.78-27.92-27.93,4.44,57.55,37.43,35.91.79.75Zm-23.19,123L262.5,906.06v104.77h42.93Zm62.1,59.58-54.62-52.4,4.75,61.51h51.81Zm-74.34-218L262.5,758.32v54.61l29.85,28.63Zm51.95,113h0l-39.19-37.61L306.8,939l52.86,50.72Z" transform="translate(-160.44 -758.32)"/><text class="cls-3" transform="translate(213.82 127.09)"><tspan class="cls-4">B</tspan><tspan x="47.75" y="0">arros &amp; Araújo</tspan><tspan class="cls-2"><tspan x="120.04" y="91.61">Engenharia</tspan></tspan></text></svg>